<mxfile host="app.diagrams.net" modified="2024-05-17T12:39:35.166Z" agent="Mozilla/5.0 (Windows NT 10.0; Win64; x64; rv:126.0) Gecko/20100101 Firefox/126.0" version="24.4.4" etag="5d_Jnsp8WBIvTFcLeO3y" type="github">
  <diagram name="Page-1" id="Bcza7XAN2thHCj79ceih">
    <mxGraphModel>
      <root>
        <mxCell id="0" />
        <mxCell id="1" parent="0" />
      </root>
    </mxGraphModel>
  </diagram>
</mxfile>
